<svg width="246" height="32" viewBox="0 0 246 32" fill="none" xmlns="http://www.w3.org/2000/svg">
<path fill-rule="evenodd" clip-rule="evenodd" d="M27.9602 20.2129L38.0122 25.6043L27.9602 30.9958L17.9082 25.6043L27.9602 20.2129Z" fill="#403FE9"/>
<path fill-rule="evenodd" clip-rule="evenodd" d="M27.9598 1.00488L55.9177 15.9993L43.4751 22.6749L27.9598 14.3523L12.4426 22.6749L0 15.9993L27.9598 1.00488Z" fill="#403FE9"/>
<path d="M111.167 31.531H106.036V28.0004C104.707 30.7555 102.234 32.0004 99.2287 32.0004C93.9751 32.0004 91.3789 28.2045 91.3789 22.1228V10.4697H96.5099V22.082C96.5099 25.4902 97.8386 27.4902 100.598 27.4902C102.97 27.4902 106.016 25.531 106.016 19.5718V10.4697H111.167V31.531Z" fill="white"/>
<path d="M116.604 31.5308V1.42871H121.734V31.5308H116.604Z" fill="white"/>
<path d="M127.705 31.5307V0H132.836V31.5307H127.705Z" fill="white"/>
<path d="M141.932 22.9996C142.565 25.4894 144.814 27.2854 147.983 27.2854C151.028 27.2854 153.236 25.918 153.236 23.5711C153.236 21.8568 151.989 20.6119 149.393 19.6935L145.632 18.4078C139.499 16.367 138.456 12.6527 138.456 10.2037C138.456 5.08124 142.79 1.91797 148.126 1.91797C153.011 1.91797 156.466 4.44859 157.795 8.59145L153.298 10.469C152.296 7.50982 150.252 6.67308 148.126 6.67308C145.754 6.67308 143.792 7.83635 143.792 10.1221C143.792 11.1221 144.078 12.6119 147.247 13.7547L151.008 15.1221C156.691 16.918 158.469 20.4894 158.51 23.367C158.51 28.9793 153.706 31.9793 148.085 31.9793C142.361 31.9793 137.864 28.7752 137.066 24.0609L141.932 22.9996Z" fill="white"/>
<path d="M199.374 10.4694V31.5511H194.243V28.3674C192.751 30.6531 190.114 32.0001 187.027 32.0001C180.772 32.0001 176.684 27.0817 176.684 20.9184C176.684 14.9592 180.608 10 187.068 10C189.91 10 192.526 11.1633 194.243 13.5714V10.4694H199.374ZM188.07 27.7143C191.565 27.7143 194.366 25.347 194.366 21.1837C194.366 17.1021 191.729 14.3061 187.947 14.3061C184.063 14.3061 181.855 17.347 181.855 20.9592C181.855 24.7143 184.227 27.7143 188.07 27.7143Z" fill="white"/>
<path d="M170.367 27.7145C168.875 27.7145 168.323 26.7145 168.323 25.4288V14.388H174.619V10.4696H168.323V4.83691H164.357L163.437 10.4492H159.9V14.3675H163.192V24.6941C163.192 30.49 166.646 31.9798 170.162 31.9798C172.268 31.9798 173.862 31.388 174.946 30.4492L173.086 27.0615C173.086 27.0615 171.634 27.7145 170.367 27.7145Z" fill="white"/>
<path d="M71.918 1.42871V31.5308H77.2534V18.4287H82.7728L87.1883 14.0206H77.2534V6.1226H90.2751V1.42871H71.918Z" fill="white"/>
<path d="M218.162 23.7346C217.385 26.102 215.341 27.2856 212.99 27.2856C209.781 27.2856 207.389 24.7142 207.389 20.8775C207.389 17.0407 209.781 14.4693 212.99 14.4693C215.463 14.4693 217.569 15.653 218.162 18.0203H223.599C222.802 13.0611 218.53 9.77539 212.99 9.77539C206.837 9.77539 202.258 14.3468 202.258 20.8775C202.258 27.4081 206.837 31.9795 212.99 31.9795C218.53 31.9795 222.843 28.7142 223.62 23.7346H218.162Z" fill="white"/>
<path d="M245.061 31.5308L236.661 20.1226L244 11.0818V10.4491H238.317L231.693 18.5512V1.42871H226.562V31.5308H231.693V21.3267L239.092 31.5308H245.061Z" fill="white"/>
</svg>
