<svg id="MU_OneLine_TwoColor" class="icon-logo" xmlns="http://www.w3.org/2000/svg" width="355.17" height="28.48" viewBox="0 0 355.17 28.48">
  <path id="Path_17" data-name="Path 17" d="M4.27,1.12h6.44l5.1,14.15L21.22,1.12h6.51l3.8,26.48H24.99L23.15,12.36h-.06L17.05,27.6h-2.6L8.67,12.36H8.61L6.51,27.6H0Z" fill="#19398a"/>
  <path id="Path_18" data-name="Path 18" d="M60.15,13.87c0,8.57-6.15,14.61-14.64,14.61S30.87,22.44,30.87,13.87C30.86,5.86,37.88.24,45.5.24S60.14,5.86,60.14,13.86Zm-22.13.03a7.491,7.491,0,1,0,14.96,0c0-3.65-3.37-6.99-7.48-6.99S38.02,10.25,38.02,13.9Z" fill="#19398a"/>
  <path id="Path_19" data-name="Path 19" d="M61.4,1.12h6.55L79.94,17.31h.07V1.12h6.55V27.6H80.01L68.02,11.37h-.07V27.6H61.4Z" fill="#19398a"/>
  <path id="Path_20" data-name="Path 20" d="M110.55,27.57h-8.13L95.93,17.4h-.07V27.57H88.99V1.12H99.27c5.23,0,9.19,2.49,9.19,8.14,0,3.65-2.03,6.8-5.79,7.47ZM95.87,12.98h.67c2.24,0,4.77-.42,4.77-3.3s-2.53-3.3-4.77-3.3h-.67v6.59Z" fill="#19398a"/>
  <path id="Path_21" data-name="Path 21" d="M145.67,6.95v4.43h10.15v5.83H145.67v4.57h10.57v5.83H138.79V1.12h17.45V6.95H145.67Z" fill="#19398a"/>
  <path id="Path_22" data-name="Path 22" d="M138.01,13.62c0,8.57-6.15,14.61-14.64,14.61s-14.64-6.04-14.64-14.61C108.73,5.61,115.75,0,123.37,0S138.01,5.62,138.01,13.62Zm-22.13.04a7.491,7.491,0,1,0,14.96,0c0-3.65-3.37-6.99-7.48-6.99s-7.48,3.34-7.48,6.99Z" fill="#19398a"/>
  <g id="Group_3" data-name="Group 3">
    <path id="Path_23" data-name="Path 23" d="M167.67,1.14V17.76a5.817,5.817,0,0,0,1.25,3.93,5.619,5.619,0,0,0,8.28,0,5.775,5.775,0,0,0,1.25-3.93V1.14h5.08V17.33a11.266,11.266,0,0,1-1.95,7.06,11.431,11.431,0,0,1-17.04,0,11.266,11.266,0,0,1-1.95-7.06V1.14Z" fill="#ffc425"/>
    <path id="Path_24" data-name="Path 24" d="M187.13,27.61V1.15h3.52L206.52,18.8V1.15h5.08V27.61h-3.52L192.21,9.92V27.61h-5.08Z" fill="#ffc425"/>
    <path id="Path_25" data-name="Path 25" d="M220.28,1.14V27.6H215.2V1.14Z" fill="#ffc425"/>
    <path id="Path_26" data-name="Path 26" d="M227.32,1.14l6.96,17.77,6.96-17.77h5.55L235.77,27.6h-3.05L221.78,1.14h5.55Z" fill="#ffc425"/>
    <path id="Path_27" data-name="Path 27" d="M262.73,5.59h-9.38V11.5h8.99v4.44h-8.99v7.22h9.38V27.6H248.27V1.14h14.46V5.58Z" fill="#ffc425"/>
    <path id="Path_28" data-name="Path 28" d="M273.63,1.14c3.6,0,5.43.95,6.64,1.98a7.589,7.589,0,0,1,2.58,5.95,7.273,7.273,0,0,1-3.05,6.23,7.1,7.1,0,0,1-2.85,1.15l8.13,11.15h-6.33l-6.96-10.63h-.63V27.6h-5.08V1.14h7.54Zm-2.46,12.18h1.45c.98,0,5-.12,5-4.01s-3.99-3.97-4.92-3.97h-1.52v7.97Z" fill="#ffc425"/>
    <path id="Path_29" data-name="Path 29" d="M299,7.17a5.064,5.064,0,0,0-4.26-2.26c-2.74,0-3.6,1.75-3.6,3.09a2.28,2.28,0,0,0,.82,1.79,9.088,9.088,0,0,0,3.13,1.51,15.06,15.06,0,0,1,5.28,2.66,7.259,7.259,0,0,1,2.23,5.55c0,5.16-3.67,8.69-9.07,8.69a10.71,10.71,0,0,1-8.99-5l3.32-3.21a6.093,6.093,0,0,0,5.47,3.53c2.31,0,4.03-1.43,4.03-3.65a3.073,3.073,0,0,0-1.02-2.38,11.548,11.548,0,0,0-4.03-1.94,12.543,12.543,0,0,1-4.34-2.3,6.187,6.187,0,0,1-2.07-4.92c0-3.89,2.58-7.77,8.36-7.77a9.975,9.975,0,0,1,7.39,3.09l-2.66,3.53Z" fill="#ffc425"/>
    <path id="Path_30" data-name="Path 30" d="M310.57,1.14V27.6h-5.08V1.14Z" fill="#ffc425"/>
    <path id="Path_31" data-name="Path 31" d="M324.72,5.59V27.61h-5.08V5.59h-5.86V1.14h16.81V5.58h-5.86Z" fill="#ffc425"/>
    <path id="Path_32" data-name="Path 32" d="M340.9,15.5,331.95,1.14h6.02l5.59,9.2,5.59-9.2h6.02L345.99,15.5V27.6h-5.08V15.5Z" fill="#ffc425"/>
  </g>
</svg>